%TF.GenerationSoftware,KiCad,Pcbnew,8.0.8*%
%TF.CreationDate,2025-02-01T16:42:16+07:00*%
%TF.ProjectId,stm32-blue-pill-backups,73746d33-322d-4626-9c75-652d70696c6c,rev?*%
%TF.SameCoordinates,Original*%
%TF.FileFunction,Paste,Top*%
%TF.FilePolarity,Positive*%
%FSLAX46Y46*%
G04 Gerber Fmt 4.6, Leading zero omitted, Abs format (unit mm)*
G04 Created by KiCad (PCBNEW 8.0.8) date 2025-02-01 16:42:16*
%MOMM*%
%LPD*%
G01*
G04 APERTURE LIST*
G04 Aperture macros list*
%AMRoundRect*
0 Rectangle with rounded corners*
0 $1 Rounding radius*
0 $2 $3 $4 $5 $6 $7 $8 $9 X,Y pos of 4 corners*
0 Add a 4 corners polygon primitive as box body*
4,1,4,$2,$3,$4,$5,$6,$7,$8,$9,$2,$3,0*
0 Add four circle primitives for the rounded corners*
1,1,$1+$1,$2,$3*
1,1,$1+$1,$4,$5*
1,1,$1+$1,$6,$7*
1,1,$1+$1,$8,$9*
0 Add four rect primitives between the rounded corners*
20,1,$1+$1,$2,$3,$4,$5,0*
20,1,$1+$1,$4,$5,$6,$7,0*
20,1,$1+$1,$6,$7,$8,$9,0*
20,1,$1+$1,$8,$9,$2,$3,0*%
G04 Aperture macros list end*
%ADD10R,0.800000X1.000000*%
%ADD11R,1.500000X0.700000*%
%ADD12RoundRect,0.135000X-0.135000X-0.185000X0.135000X-0.185000X0.135000X0.185000X-0.135000X0.185000X0*%
%ADD13RoundRect,0.135000X0.135000X0.185000X-0.135000X0.185000X-0.135000X-0.185000X0.135000X-0.185000X0*%
%ADD14RoundRect,0.218750X0.256250X-0.218750X0.256250X0.218750X-0.256250X0.218750X-0.256250X-0.218750X0*%
%ADD15RoundRect,0.140000X-0.140000X-0.170000X0.140000X-0.170000X0.140000X0.170000X-0.140000X0.170000X0*%
%ADD16RoundRect,0.140000X0.170000X-0.140000X0.170000X0.140000X-0.170000X0.140000X-0.170000X-0.140000X0*%
%ADD17RoundRect,0.250000X-0.250000X-0.475000X0.250000X-0.475000X0.250000X0.475000X-0.250000X0.475000X0*%
%ADD18RoundRect,0.218750X-0.256250X0.218750X-0.256250X-0.218750X0.256250X-0.218750X0.256250X0.218750X0*%
%ADD19RoundRect,0.250000X0.475000X-0.250000X0.475000X0.250000X-0.475000X0.250000X-0.475000X-0.250000X0*%
%ADD20RoundRect,0.140000X-0.170000X0.140000X-0.170000X-0.140000X0.170000X-0.140000X0.170000X0.140000X0*%
%ADD21RoundRect,0.075000X-0.662500X-0.075000X0.662500X-0.075000X0.662500X0.075000X-0.662500X0.075000X0*%
%ADD22RoundRect,0.075000X-0.075000X-0.662500X0.075000X-0.662500X0.075000X0.662500X-0.075000X0.662500X0*%
%ADD23RoundRect,0.225000X-0.225000X-0.250000X0.225000X-0.250000X0.225000X0.250000X-0.225000X0.250000X0*%
%ADD24RoundRect,0.135000X0.185000X-0.135000X0.185000X0.135000X-0.185000X0.135000X-0.185000X-0.135000X0*%
%ADD25RoundRect,0.140000X0.140000X0.170000X-0.140000X0.170000X-0.140000X-0.170000X0.140000X-0.170000X0*%
%ADD26R,1.200000X1.400000*%
%ADD27R,1.300000X0.450000*%
%ADD28RoundRect,0.375000X-0.375000X0.625000X-0.375000X-0.625000X0.375000X-0.625000X0.375000X0.625000X0*%
%ADD29RoundRect,0.500000X-1.400000X0.500000X-1.400000X-0.500000X1.400000X-0.500000X1.400000X0.500000X0*%
G04 APERTURE END LIST*
D10*
%TO.C,BOOT*%
X108500000Y-88050000D03*
X106290000Y-88050000D03*
X108500000Y-95350000D03*
X106290000Y-95350000D03*
D11*
X109150000Y-89450000D03*
X109150000Y-92450000D03*
X109150000Y-93950000D03*
%TD*%
D12*
%TO.C,R3*%
X137850000Y-104000000D03*
X138870000Y-104000000D03*
%TD*%
D13*
%TO.C,R4*%
X114910000Y-106950000D03*
X115930000Y-106950000D03*
%TD*%
D14*
%TO.C,FB1*%
X117410000Y-104075000D03*
X117410000Y-102500000D03*
%TD*%
D15*
%TO.C,C2*%
X118910000Y-92000000D03*
X119870000Y-92000000D03*
%TD*%
D12*
%TO.C,R1*%
X111220000Y-90230000D03*
X112240000Y-90230000D03*
%TD*%
D16*
%TO.C,C11*%
X114590000Y-98490000D03*
X114590000Y-97530000D03*
%TD*%
D15*
%TO.C,C8*%
X114950000Y-104000000D03*
X115910000Y-104000000D03*
%TD*%
D17*
%TO.C,C12*%
X129660000Y-101400000D03*
X131560000Y-101400000D03*
%TD*%
D18*
%TO.C,D1*%
X138160000Y-105675000D03*
X138160000Y-107250000D03*
%TD*%
D15*
%TO.C,C7*%
X114950000Y-102500000D03*
X115910000Y-102500000D03*
%TD*%
D19*
%TO.C,C13*%
X135890000Y-107220000D03*
X135890000Y-105320000D03*
%TD*%
D20*
%TO.C,C1*%
X127910000Y-95000000D03*
X127910000Y-95960000D03*
%TD*%
D15*
%TO.C,C9*%
X119250000Y-104000000D03*
X120210000Y-104000000D03*
%TD*%
D16*
%TO.C,C4*%
X115910000Y-95500000D03*
X115910000Y-94540000D03*
%TD*%
%TO.C,C6*%
X115910000Y-99460000D03*
X115910000Y-98500000D03*
%TD*%
D21*
%TO.C,U1*%
X117747500Y-95250000D03*
X117747500Y-95750000D03*
X117747500Y-96250000D03*
X117747500Y-96750000D03*
X117747500Y-97250000D03*
X117747500Y-97750000D03*
X117747500Y-98250000D03*
X117747500Y-98750000D03*
X117747500Y-99250000D03*
X117747500Y-99750000D03*
X117747500Y-100250000D03*
X117747500Y-100750000D03*
D22*
X119160000Y-102162500D03*
X119660000Y-102162500D03*
X120160000Y-102162500D03*
X120660000Y-102162500D03*
X121160000Y-102162500D03*
X121660000Y-102162500D03*
X122160000Y-102162500D03*
X122660000Y-102162500D03*
X123160000Y-102162500D03*
X123660000Y-102162500D03*
X124160000Y-102162500D03*
X124660000Y-102162500D03*
D21*
X126072500Y-100750000D03*
X126072500Y-100250000D03*
X126072500Y-99750000D03*
X126072500Y-99250000D03*
X126072500Y-98750000D03*
X126072500Y-98250000D03*
X126072500Y-97750000D03*
X126072500Y-97250000D03*
X126072500Y-96750000D03*
X126072500Y-96250000D03*
X126072500Y-95750000D03*
X126072500Y-95250000D03*
D22*
X124660000Y-93837500D03*
X124160000Y-93837500D03*
X123660000Y-93837500D03*
X123160000Y-93837500D03*
X122660000Y-93837500D03*
X122160000Y-93837500D03*
X121660000Y-93837500D03*
X121160000Y-93837500D03*
X120660000Y-93837500D03*
X120160000Y-93837500D03*
X119660000Y-93837500D03*
X119160000Y-93837500D03*
%TD*%
D23*
%TO.C,C5*%
X120140000Y-90200000D03*
X118590000Y-90200000D03*
%TD*%
D24*
%TO.C,R2*%
X130610000Y-95590000D03*
X130610000Y-96610000D03*
%TD*%
D25*
%TO.C,C3*%
X124600000Y-104000000D03*
X125560000Y-104000000D03*
%TD*%
D26*
%TO.C,Y1*%
X111390000Y-95830000D03*
X111390000Y-98030000D03*
X113090000Y-98030000D03*
X113090000Y-95830000D03*
%TD*%
D27*
%TO.C,USB*%
X139185000Y-95495000D03*
X139185000Y-96145000D03*
X139185000Y-96795000D03*
X139185000Y-97445000D03*
X139185000Y-98095000D03*
%TD*%
D16*
%TO.C,C10*%
X114590000Y-96490000D03*
X114590000Y-95530000D03*
%TD*%
D12*
%TO.C,R5*%
X117110000Y-106950000D03*
X118130000Y-106950000D03*
%TD*%
D28*
%TO.C,U2*%
X133060000Y-103850000D03*
X130760000Y-103850000D03*
D29*
X130760000Y-110150000D03*
D28*
X128460000Y-103850000D03*
%TD*%
M02*
