M48
; DRILL file {KiCad 8.0.8} date 2025-02-01T16:42:05+0700
; FORMAT={-:-/ absolute / metric / decimal}
; #@! TF.CreationDate,2025-02-01T16:42:05+07:00
; #@! TF.GenerationSoftware,Kicad,Pcbnew,8.0.8
; #@! TF.FileFunction,MixedPlating,1,2
FMAT,2
METRIC
; #@! TA.AperFunction,Plated,PTH,ViaDrill
T1C0.300
; #@! TA.AperFunction,Plated,PTH,ComponentDrill
T2C0.550
; #@! TA.AperFunction,Plated,PTH,ComponentDrill
T3C0.850
; #@! TA.AperFunction,Plated,PTH,ComponentDrill
T4C1.000
; #@! TA.AperFunction,NonPlated,NPTH,ComponentDrill
T5C0.800
; #@! TA.AperFunction,NonPlated,NPTH,ComponentDrill
T6C0.900
; #@! TA.AperFunction,NonPlated,NPTH,ComponentDrill
T7C2.200
%
G90
G05
T1
X109.9Y-98.02
X110.73Y-88.87
X112.16Y-85.0
X113.09Y-94.3
X113.41Y-89.1
X114.465Y-90.145
X114.59Y-94.69
X115.233Y-97.19
X115.88Y-101.69
X115.9Y-93.74
X117.11Y-106.95
X117.46Y-105.43
X119.11Y-99.13
X119.66Y-95.14
X121.06Y-103.99
X124.16Y-100.91
X124.38Y-109.52
X127.49Y-86.95
X128.9Y-95.97
X132.52Y-105.67
X132.94Y-100.83
X132.94Y-101.93
X133.5Y-105.67
X135.92Y-104.04
X138.04Y-95.48
X139.84Y-104.07
T4
X114.45Y-85.0
X114.47Y-109.5
X116.99Y-85.0
X117.01Y-109.5
X119.53Y-85.0
X119.55Y-109.5
X122.07Y-85.0
X122.09Y-109.5
X127.5Y-85.0
X130.04Y-85.0
X132.58Y-85.0
X135.12Y-85.0
T5
X140.285Y-94.295
X140.285Y-99.295
T6
X107.39Y-90.2
X107.39Y-93.2
T7
X107.97Y-84.65
X107.97Y-109.65
X141.97Y-84.65
X141.97Y-109.65
T2
G00X142.71Y-92.92
M15
G01X143.36Y-92.92
M16
G05
G00X142.71Y-100.67
M15
G01X143.36Y-100.67
M16
G05
T3
G00X138.96Y-93.07
M15
G01X139.51Y-93.07
M16
G05
G00X138.96Y-100.52
M15
G01X139.51Y-100.52
M16
G05
M30
