%TF.GenerationSoftware,KiCad,Pcbnew,8.0.8*%
%TF.CreationDate,2025-02-01T16:42:16+07:00*%
%TF.ProjectId,stm32-blue-pill-backups,73746d33-322d-4626-9c75-652d70696c6c,rev?*%
%TF.SameCoordinates,Original*%
%TF.FileFunction,Copper,L1,Top*%
%TF.FilePolarity,Positive*%
%FSLAX46Y46*%
G04 Gerber Fmt 4.6, Leading zero omitted, Abs format (unit mm)*
G04 Created by KiCad (PCBNEW 8.0.8) date 2025-02-01 16:42:16*
%MOMM*%
%LPD*%
G01*
G04 APERTURE LIST*
G04 Aperture macros list*
%AMRoundRect*
0 Rectangle with rounded corners*
0 $1 Rounding radius*
0 $2 $3 $4 $5 $6 $7 $8 $9 X,Y pos of 4 corners*
0 Add a 4 corners polygon primitive as box body*
4,1,4,$2,$3,$4,$5,$6,$7,$8,$9,$2,$3,0*
0 Add four circle primitives for the rounded corners*
1,1,$1+$1,$2,$3*
1,1,$1+$1,$4,$5*
1,1,$1+$1,$6,$7*
1,1,$1+$1,$8,$9*
0 Add four rect primitives between the rounded corners*
20,1,$1+$1,$2,$3,$4,$5,0*
20,1,$1+$1,$4,$5,$6,$7,0*
20,1,$1+$1,$6,$7,$8,$9,0*
20,1,$1+$1,$8,$9,$2,$3,0*%
G04 Aperture macros list end*
%TA.AperFunction,SMDPad,CuDef*%
%ADD10R,0.800000X1.000000*%
%TD*%
%TA.AperFunction,SMDPad,CuDef*%
%ADD11R,1.500000X0.700000*%
%TD*%
%TA.AperFunction,SMDPad,CuDef*%
%ADD12RoundRect,0.135000X-0.135000X-0.185000X0.135000X-0.185000X0.135000X0.185000X-0.135000X0.185000X0*%
%TD*%
%TA.AperFunction,SMDPad,CuDef*%
%ADD13RoundRect,0.135000X0.135000X0.185000X-0.135000X0.185000X-0.135000X-0.185000X0.135000X-0.185000X0*%
%TD*%
%TA.AperFunction,ComponentPad*%
%ADD14R,1.700000X1.700000*%
%TD*%
%TA.AperFunction,ComponentPad*%
%ADD15O,1.700000X1.700000*%
%TD*%
%TA.AperFunction,SMDPad,CuDef*%
%ADD16RoundRect,0.218750X0.256250X-0.218750X0.256250X0.218750X-0.256250X0.218750X-0.256250X-0.218750X0*%
%TD*%
%TA.AperFunction,SMDPad,CuDef*%
%ADD17RoundRect,0.140000X-0.140000X-0.170000X0.140000X-0.170000X0.140000X0.170000X-0.140000X0.170000X0*%
%TD*%
%TA.AperFunction,SMDPad,CuDef*%
%ADD18RoundRect,0.140000X0.170000X-0.140000X0.170000X0.140000X-0.170000X0.140000X-0.170000X-0.140000X0*%
%TD*%
%TA.AperFunction,SMDPad,CuDef*%
%ADD19RoundRect,0.250000X-0.250000X-0.475000X0.250000X-0.475000X0.250000X0.475000X-0.250000X0.475000X0*%
%TD*%
%TA.AperFunction,SMDPad,CuDef*%
%ADD20RoundRect,0.218750X-0.256250X0.218750X-0.256250X-0.218750X0.256250X-0.218750X0.256250X0.218750X0*%
%TD*%
%TA.AperFunction,SMDPad,CuDef*%
%ADD21RoundRect,0.250000X0.475000X-0.250000X0.475000X0.250000X-0.475000X0.250000X-0.475000X-0.250000X0*%
%TD*%
%TA.AperFunction,SMDPad,CuDef*%
%ADD22RoundRect,0.140000X-0.170000X0.140000X-0.170000X-0.140000X0.170000X-0.140000X0.170000X0.140000X0*%
%TD*%
%TA.AperFunction,SMDPad,CuDef*%
%ADD23RoundRect,0.075000X-0.662500X-0.075000X0.662500X-0.075000X0.662500X0.075000X-0.662500X0.075000X0*%
%TD*%
%TA.AperFunction,SMDPad,CuDef*%
%ADD24RoundRect,0.075000X-0.075000X-0.662500X0.075000X-0.662500X0.075000X0.662500X-0.075000X0.662500X0*%
%TD*%
%TA.AperFunction,SMDPad,CuDef*%
%ADD25RoundRect,0.225000X-0.225000X-0.250000X0.225000X-0.250000X0.225000X0.250000X-0.225000X0.250000X0*%
%TD*%
%TA.AperFunction,SMDPad,CuDef*%
%ADD26RoundRect,0.135000X0.185000X-0.135000X0.185000X0.135000X-0.185000X0.135000X-0.185000X-0.135000X0*%
%TD*%
%TA.AperFunction,SMDPad,CuDef*%
%ADD27RoundRect,0.140000X0.140000X0.170000X-0.140000X0.170000X-0.140000X-0.170000X0.140000X-0.170000X0*%
%TD*%
%TA.AperFunction,SMDPad,CuDef*%
%ADD28R,1.200000X1.400000*%
%TD*%
%TA.AperFunction,HeatsinkPad*%
%ADD29O,1.800000X1.150000*%
%TD*%
%TA.AperFunction,HeatsinkPad*%
%ADD30O,2.000000X1.450000*%
%TD*%
%TA.AperFunction,SMDPad,CuDef*%
%ADD31R,1.300000X0.450000*%
%TD*%
%TA.AperFunction,SMDPad,CuDef*%
%ADD32RoundRect,0.375000X-0.375000X0.625000X-0.375000X-0.625000X0.375000X-0.625000X0.375000X0.625000X0*%
%TD*%
%TA.AperFunction,SMDPad,CuDef*%
%ADD33RoundRect,0.500000X-1.400000X0.500000X-1.400000X-0.500000X1.400000X-0.500000X1.400000X0.500000X0*%
%TD*%
%TA.AperFunction,ViaPad*%
%ADD34C,0.700000*%
%TD*%
%TA.AperFunction,Conductor*%
%ADD35C,0.500000*%
%TD*%
%TA.AperFunction,Conductor*%
%ADD36C,0.300000*%
%TD*%
%TA.AperFunction,Conductor*%
%ADD37C,0.200000*%
%TD*%
G04 APERTURE END LIST*
D10*
%TO.P,BOOT,*%
%TO.N,*%
X108500000Y-88050000D03*
X106290000Y-88050000D03*
X108500000Y-95350000D03*
X106290000Y-95350000D03*
D11*
%TO.P,BOOT,1,A*%
%TO.N,GND*%
X109150000Y-89450000D03*
%TO.P,BOOT,2,B*%
%TO.N,/SW_BOOT0*%
X109150000Y-92450000D03*
%TO.P,BOOT,3,C*%
%TO.N,+3.3V*%
X109150000Y-93950000D03*
%TD*%
D12*
%TO.P,R3,1*%
%TO.N,Net-(D1-K)*%
X137850000Y-104000000D03*
%TO.P,R3,2*%
%TO.N,GND*%
X138870000Y-104000000D03*
%TD*%
D13*
%TO.P,R4,2*%
%TO.N,/I2C2_SCL*%
X114910000Y-106950000D03*
%TO.P,R4,1*%
%TO.N,+3.3V*%
X115930000Y-106950000D03*
%TD*%
D14*
%TO.P,SWD,1,Pin_1*%
%TO.N,+3.3V*%
X135120000Y-85000000D03*
D15*
%TO.P,SWD,2,Pin_2*%
%TO.N,/SWDIO*%
X132580000Y-85000000D03*
%TO.P,SWD,3,Pin_3*%
%TO.N,/SWCLK*%
X130040000Y-85000000D03*
%TO.P,SWD,4,Pin_4*%
%TO.N,GND*%
X127500000Y-85000000D03*
%TD*%
D16*
%TO.P,FB1,1*%
%TO.N,+3.3V*%
X117410000Y-104075000D03*
%TO.P,FB1,2*%
%TO.N,+3.3VA*%
X117410000Y-102500000D03*
%TD*%
D17*
%TO.P,C2,1*%
%TO.N,+3.3V*%
X118910000Y-92000000D03*
%TO.P,C2,2*%
%TO.N,GND*%
X119870000Y-92000000D03*
%TD*%
D12*
%TO.P,R1,1*%
%TO.N,/SW_BOOT0*%
X111220000Y-90230000D03*
%TO.P,R1,2*%
%TO.N,/BOOT0*%
X112240000Y-90230000D03*
%TD*%
D18*
%TO.P,C11,1*%
%TO.N,/HSI_OUT*%
X114590000Y-98490000D03*
%TO.P,C11,2*%
%TO.N,GND*%
X114590000Y-97530000D03*
%TD*%
D17*
%TO.P,C8,1*%
%TO.N,+3.3V*%
X114950000Y-104000000D03*
%TO.P,C8,2*%
%TO.N,GND*%
X115910000Y-104000000D03*
%TD*%
D19*
%TO.P,C12,1*%
%TO.N,VBUS*%
X129660000Y-101400000D03*
%TO.P,C12,2*%
%TO.N,GND*%
X131560000Y-101400000D03*
%TD*%
D20*
%TO.P,D1,1,K*%
%TO.N,Net-(D1-K)*%
X138160000Y-105675000D03*
%TO.P,D1,2,A*%
%TO.N,+3.3V*%
X138160000Y-107250000D03*
%TD*%
D17*
%TO.P,C7,1*%
%TO.N,+3.3VA*%
X114950000Y-102500000D03*
%TO.P,C7,2*%
%TO.N,GND*%
X115910000Y-102500000D03*
%TD*%
D21*
%TO.P,C13,1*%
%TO.N,+3.3V*%
X135890000Y-107220000D03*
%TO.P,C13,2*%
%TO.N,GND*%
X135890000Y-105320000D03*
%TD*%
D22*
%TO.P,C1,1*%
%TO.N,+3.3V*%
X127910000Y-95000000D03*
%TO.P,C1,2*%
%TO.N,GND*%
X127910000Y-95960000D03*
%TD*%
D14*
%TO.P,I2C2,1,Pin_1*%
%TO.N,+3.3V*%
X114470000Y-109500000D03*
D15*
%TO.P,I2C2,2,Pin_2*%
%TO.N,/I2C2_SCL*%
X117010000Y-109500000D03*
%TO.P,I2C2,3,Pin_3*%
%TO.N,/I2C2_SDA*%
X119550000Y-109500000D03*
%TO.P,I2C2,4,Pin_4*%
%TO.N,GND*%
X122090000Y-109500000D03*
%TD*%
D17*
%TO.P,C9,1*%
%TO.N,/NRST*%
X119250000Y-104000000D03*
%TO.P,C9,2*%
%TO.N,GND*%
X120210000Y-104000000D03*
%TD*%
D18*
%TO.P,C4,1*%
%TO.N,+3.3V*%
X115910000Y-95500000D03*
%TO.P,C4,2*%
%TO.N,GND*%
X115910000Y-94540000D03*
%TD*%
%TO.P,C6,1*%
%TO.N,+3.3VA*%
X115910000Y-99460000D03*
%TO.P,C6,2*%
%TO.N,GND*%
X115910000Y-98500000D03*
%TD*%
D23*
%TO.P,U1,1,VBAT*%
%TO.N,+3.3V*%
X117747500Y-95250000D03*
%TO.P,U1,2,PC13*%
%TO.N,unconnected-(U1-PC13-Pad2)*%
X117747500Y-95750000D03*
%TO.P,U1,3,PC14*%
%TO.N,unconnected-(U1-PC14-Pad3)*%
X117747500Y-96250000D03*
%TO.P,U1,4,PC15*%
%TO.N,unconnected-(U1-PC15-Pad4)*%
X117747500Y-96750000D03*
%TO.P,U1,5,PD0*%
%TO.N,/HSI_IN*%
X117747500Y-97250000D03*
%TO.P,U1,6,PD1*%
%TO.N,/HSI_OUT*%
X117747500Y-97750000D03*
%TO.P,U1,7,NRST*%
%TO.N,/NRST*%
X117747500Y-98250000D03*
%TO.P,U1,8,VSSA*%
%TO.N,GND*%
X117747500Y-98750000D03*
%TO.P,U1,9,VDDA*%
%TO.N,+3.3VA*%
X117747500Y-99250000D03*
%TO.P,U1,10,PA0*%
%TO.N,unconnected-(U1-PA0-Pad10)*%
X117747500Y-99750000D03*
%TO.P,U1,11,PA1*%
%TO.N,unconnected-(U1-PA1-Pad11)*%
X117747500Y-100250000D03*
%TO.P,U1,12,PA2*%
%TO.N,unconnected-(U1-PA2-Pad12)*%
X117747500Y-100750000D03*
D24*
%TO.P,U1,13,PA3*%
%TO.N,unconnected-(U1-PA3-Pad13)*%
X119160000Y-102162500D03*
%TO.P,U1,14,PA4*%
%TO.N,unconnected-(U1-PA4-Pad14)*%
X119660000Y-102162500D03*
%TO.P,U1,15,PA5*%
%TO.N,unconnected-(U1-PA5-Pad15)*%
X120160000Y-102162500D03*
%TO.P,U1,16,PA6*%
%TO.N,unconnected-(U1-PA6-Pad16)*%
X120660000Y-102162500D03*
%TO.P,U1,17,PA7*%
%TO.N,unconnected-(U1-PA7-Pad17)*%
X121160000Y-102162500D03*
%TO.P,U1,18,PB0*%
%TO.N,unconnected-(U1-PB0-Pad18)*%
X121660000Y-102162500D03*
%TO.P,U1,19,PB1*%
%TO.N,unconnected-(U1-PB1-Pad19)*%
X122160000Y-102162500D03*
%TO.P,U1,20,PB2*%
%TO.N,unconnected-(U1-PB2-Pad20)*%
X122660000Y-102162500D03*
%TO.P,U1,21,PB10*%
%TO.N,/I2C2_SCL*%
X123160000Y-102162500D03*
%TO.P,U1,22,PB11*%
%TO.N,/I2C2_SDA*%
X123660000Y-102162500D03*
%TO.P,U1,23,VSS*%
%TO.N,GND*%
X124160000Y-102162500D03*
%TO.P,U1,24,VDD*%
%TO.N,+3.3V*%
X124660000Y-102162500D03*
D23*
%TO.P,U1,25,PB12*%
%TO.N,unconnected-(U1-PB12-Pad25)*%
X126072500Y-100750000D03*
%TO.P,U1,26,PB13*%
%TO.N,unconnected-(U1-PB13-Pad26)*%
X126072500Y-100250000D03*
%TO.P,U1,27,PB14*%
%TO.N,unconnected-(U1-PB14-Pad27)*%
X126072500Y-99750000D03*
%TO.P,U1,28,PB15*%
%TO.N,unconnected-(U1-PB15-Pad28)*%
X126072500Y-99250000D03*
%TO.P,U1,29,PA8*%
%TO.N,unconnected-(U1-PA8-Pad29)*%
X126072500Y-98750000D03*
%TO.P,U1,30,PA9*%
%TO.N,unconnected-(U1-PA9-Pad30)*%
X126072500Y-98250000D03*
%TO.P,U1,31,PA10*%
%TO.N,unconnected-(U1-PA10-Pad31)*%
X126072500Y-97750000D03*
%TO.P,U1,32,PA11*%
%TO.N,/USB_D-*%
X126072500Y-97250000D03*
%TO.P,U1,33,PA12*%
%TO.N,/USB_D+*%
X126072500Y-96750000D03*
%TO.P,U1,34,PA13*%
%TO.N,/SWDIO*%
X126072500Y-96250000D03*
%TO.P,U1,35,VSS*%
%TO.N,GND*%
X126072500Y-95750000D03*
%TO.P,U1,36,VDD*%
%TO.N,+3.3V*%
X126072500Y-95250000D03*
D24*
%TO.P,U1,37,PA14*%
%TO.N,/SWCLK*%
X124660000Y-93837500D03*
%TO.P,U1,38,PA15*%
%TO.N,unconnected-(U1-PA15-Pad38)*%
X124160000Y-93837500D03*
%TO.P,U1,39,PB3*%
%TO.N,unconnected-(U1-PB3-Pad39)*%
X123660000Y-93837500D03*
%TO.P,U1,40,PB4*%
%TO.N,unconnected-(U1-PB4-Pad40)*%
X123160000Y-93837500D03*
%TO.P,U1,41,PB5*%
%TO.N,unconnected-(U1-PB5-Pad41)*%
X122660000Y-93837500D03*
%TO.P,U1,42,PB6*%
%TO.N,/USART1_TX*%
X122160000Y-93837500D03*
%TO.P,U1,43,PB7*%
%TO.N,/USART1_RX*%
X121660000Y-93837500D03*
%TO.P,U1,44,BOOT0*%
%TO.N,/BOOT0*%
X121160000Y-93837500D03*
%TO.P,U1,45,PB8*%
%TO.N,unconnected-(U1-PB8-Pad45)*%
X120660000Y-93837500D03*
%TO.P,U1,46,PB9*%
%TO.N,unconnected-(U1-PB9-Pad46)*%
X120160000Y-93837500D03*
%TO.P,U1,47,VSS*%
%TO.N,GND*%
X119660000Y-93837500D03*
%TO.P,U1,48,VDD*%
%TO.N,+3.3V*%
X119160000Y-93837500D03*
%TD*%
D14*
%TO.P,UART,1,Pin_1*%
%TO.N,+3.3V*%
X122070000Y-85000000D03*
D15*
%TO.P,UART,2,Pin_2*%
%TO.N,/USART1_TX*%
X119530000Y-85000000D03*
%TO.P,UART,3,Pin_3*%
%TO.N,/USART1_RX*%
X116990000Y-85000000D03*
%TO.P,UART,4,Pin_4*%
%TO.N,GND*%
X114450000Y-85000000D03*
%TD*%
D25*
%TO.P,C5,2*%
%TO.N,GND*%
X120140000Y-90200000D03*
%TO.P,C5,1*%
%TO.N,+3.3V*%
X118590000Y-90200000D03*
%TD*%
D26*
%TO.P,R2,2*%
%TO.N,+3.3V*%
X130610000Y-95590000D03*
%TO.P,R2,1*%
%TO.N,/USB_D+*%
X130610000Y-96610000D03*
%TD*%
D27*
%TO.P,C3,2*%
%TO.N,GND*%
X124600000Y-104000000D03*
%TO.P,C3,1*%
%TO.N,+3.3V*%
X125560000Y-104000000D03*
%TD*%
D28*
%TO.P,Y1,1,1*%
%TO.N,/HSI_IN*%
X111390000Y-95830000D03*
%TO.P,Y1,2,2*%
%TO.N,GND*%
X111390000Y-98030000D03*
%TO.P,Y1,3,3*%
%TO.N,/HSI_OUT*%
X113090000Y-98030000D03*
%TO.P,Y1,4,4*%
%TO.N,GND*%
X113090000Y-95830000D03*
%TD*%
D29*
%TO.P,USB,6,Shield*%
%TO.N,unconnected-(J1-Shield-Pad6)_2*%
X143035000Y-92920000D03*
D30*
%TO.N,unconnected-(J1-Shield-Pad6)*%
X139235000Y-93070000D03*
%TO.N,unconnected-(J1-Shield-Pad6)_1*%
X139235000Y-100520000D03*
D29*
%TO.N,unconnected-(J1-Shield-Pad6)_3*%
X143035000Y-100670000D03*
D31*
%TO.P,USB,5,GND*%
%TO.N,GND*%
X139185000Y-95495000D03*
%TO.P,USB,4,ID*%
%TO.N,unconnected-(J1-ID-Pad4)*%
X139185000Y-96145000D03*
%TO.P,USB,3,D+*%
%TO.N,/USB_D+*%
X139185000Y-96795000D03*
%TO.P,USB,2,D-*%
%TO.N,/USB_D-*%
X139185000Y-97445000D03*
%TO.P,USB,1,VBUS*%
%TO.N,VBUS*%
X139185000Y-98095000D03*
%TD*%
D18*
%TO.P,C10,1*%
%TO.N,/HSI_IN*%
X114590000Y-96490000D03*
%TO.P,C10,2*%
%TO.N,GND*%
X114590000Y-95530000D03*
%TD*%
D12*
%TO.P,R5,1*%
%TO.N,+3.3V*%
X117110000Y-106950000D03*
%TO.P,R5,2*%
%TO.N,/I2C2_SDA*%
X118130000Y-106950000D03*
%TD*%
D32*
%TO.P,U2,1,GND*%
%TO.N,GND*%
X133060000Y-103850000D03*
%TO.P,U2,2,VO*%
%TO.N,+3.3V*%
X130760000Y-103850000D03*
D33*
X130760000Y-110150000D03*
D32*
%TO.P,U2,3,VI*%
%TO.N,VBUS*%
X128460000Y-103850000D03*
%TD*%
D34*
%TO.N,GND*%
X115233155Y-97190000D03*
%TO.N,+3.3V*%
X114464975Y-90144975D03*
X113410000Y-89100000D03*
X117110000Y-106950000D03*
X117460000Y-105430000D03*
%TO.N,GND*%
X139840000Y-104070000D03*
X135920000Y-104040000D03*
X133500000Y-105670000D03*
X132520000Y-105670000D03*
X132940000Y-100830000D03*
X132940000Y-101930000D03*
X138040000Y-95480000D03*
X119660000Y-95140000D03*
X128900000Y-95970000D03*
X124160000Y-100910000D03*
X119110000Y-99130000D03*
X124380000Y-109520000D03*
X115880000Y-101690000D03*
X121060000Y-103990000D03*
X127490000Y-86950000D03*
X112160000Y-85000000D03*
X110730000Y-88870000D03*
X109900000Y-98020000D03*
X113090000Y-94300000D03*
X114590000Y-94690000D03*
X115900000Y-93740000D03*
%TD*%
D35*
%TO.N,+3.3V*%
X116725000Y-104760000D02*
X114190000Y-104760000D01*
X117410000Y-104075000D02*
X116725000Y-104760000D01*
%TO.N,GND*%
X115910000Y-104000000D02*
X115910000Y-102500000D01*
%TO.N,+3.3V*%
X114470000Y-109500000D02*
X114190000Y-109220000D01*
X117400000Y-91390000D02*
X118590000Y-90200000D01*
X115090000Y-91390000D02*
X117400000Y-91390000D01*
D36*
X116600000Y-92190000D02*
X117400000Y-91390000D01*
X116600000Y-95119999D02*
X116600000Y-92190000D01*
%TO.N,GND*%
X114893155Y-97530000D02*
X115233155Y-97190000D01*
X114590000Y-97530000D02*
X114893155Y-97530000D01*
%TO.N,+3.3V*%
X116219999Y-95500000D02*
X116600000Y-95119999D01*
X115910000Y-95500000D02*
X116219999Y-95500000D01*
X118910000Y-92600000D02*
X118910000Y-92000000D01*
X119160000Y-92850000D02*
X118910000Y-92600000D01*
X119160000Y-93837500D02*
X119160000Y-92850000D01*
%TO.N,/NRST*%
X118450000Y-103200000D02*
X119250000Y-104000000D01*
X118906880Y-101075000D02*
X118450000Y-101531880D01*
X118450000Y-101531880D02*
X118450000Y-103200000D01*
X120560000Y-99590000D02*
X119075000Y-101075000D01*
X119940000Y-98250000D02*
X120560000Y-98870000D01*
X117747500Y-98250000D02*
X119940000Y-98250000D01*
X120560000Y-98870000D02*
X120560000Y-99590000D01*
X119075000Y-101075000D02*
X118906880Y-101075000D01*
D37*
%TO.N,/USB_D-*%
X138317759Y-97445000D02*
X139185000Y-97445000D01*
X138097759Y-97225000D02*
X138317759Y-97445000D01*
%TO.N,/USB_D+*%
X138304127Y-96795000D02*
X139185000Y-96795000D01*
X138284147Y-96775020D02*
X138304127Y-96795000D01*
D35*
%TO.N,+3.3V*%
X111240000Y-84060000D02*
X111240000Y-86930000D01*
X112310000Y-82990000D02*
X111240000Y-84060000D01*
X111240000Y-86930000D02*
X113410000Y-89100000D01*
X121420000Y-82990000D02*
X112310000Y-82990000D01*
X122070000Y-85000000D02*
X122070000Y-83640000D01*
X122070000Y-83640000D02*
X121420000Y-82990000D01*
X115090000Y-90770000D02*
X115090000Y-91390000D01*
X114464975Y-90144975D02*
X115090000Y-90770000D01*
X113020000Y-91390000D02*
X115090000Y-91390000D01*
X108950000Y-100601056D02*
X113108944Y-104760000D01*
X108950000Y-100450000D02*
X108950000Y-100601056D01*
X107650000Y-99150000D02*
X108950000Y-100450000D01*
X107650000Y-94400000D02*
X107650000Y-99150000D01*
X113108944Y-104760000D02*
X114190000Y-104760000D01*
X108100000Y-93950000D02*
X107650000Y-94400000D01*
X109150000Y-93950000D02*
X108100000Y-93950000D01*
X110460000Y-93950000D02*
X113020000Y-91390000D01*
X109150000Y-93950000D02*
X110460000Y-93950000D01*
X139780000Y-88330000D02*
X139780000Y-86680000D01*
X130610000Y-95590000D02*
X132520000Y-95590000D01*
X132520000Y-95590000D02*
X139780000Y-88330000D01*
X139780000Y-86680000D02*
X141330000Y-88230000D01*
X138100000Y-85000000D02*
X139780000Y-86680000D01*
X130020000Y-95000000D02*
X127910000Y-95000000D01*
X130610000Y-95590000D02*
X130020000Y-95000000D01*
X125560000Y-111440000D02*
X125560000Y-104000000D01*
X126390000Y-112270000D02*
X125560000Y-111440000D01*
X135220000Y-112270000D02*
X126390000Y-112270000D01*
X138160000Y-107250000D02*
X138160000Y-109330000D01*
X138160000Y-109330000D02*
X135220000Y-112270000D01*
X114950000Y-104000000D02*
X114190000Y-104760000D01*
%TO.N,+3.3VA*%
X115910000Y-100562501D02*
X115910000Y-99460000D01*
X117410000Y-102062501D02*
X115910000Y-100562501D01*
X117410000Y-102500000D02*
X117410000Y-102062501D01*
X115910000Y-99640000D02*
X115910000Y-99460000D01*
X114950000Y-100600000D02*
X115910000Y-99640000D01*
X114950000Y-102500000D02*
X114950000Y-100600000D01*
%TO.N,+3.3V*%
X117410000Y-105380000D02*
X117460000Y-105430000D01*
X117410000Y-104075000D02*
X117410000Y-105380000D01*
X117110000Y-106950000D02*
X115930000Y-106950000D01*
X138840000Y-107250000D02*
X138160000Y-107250000D01*
X141330000Y-104760000D02*
X138840000Y-107250000D01*
X141330000Y-88230000D02*
X141330000Y-104760000D01*
X135120000Y-85000000D02*
X138100000Y-85000000D01*
X135120000Y-83420000D02*
X135120000Y-85000000D01*
X122400000Y-82820000D02*
X134520000Y-82820000D01*
X134520000Y-82820000D02*
X135120000Y-83420000D01*
X122070000Y-85000000D02*
X122070000Y-83150000D01*
X122070000Y-83150000D02*
X122400000Y-82820000D01*
D36*
%TO.N,Net-(D1-K)*%
X137850000Y-105365000D02*
X138160000Y-105675000D01*
X137850000Y-104000000D02*
X137850000Y-105365000D01*
D35*
%TO.N,GND*%
X139770000Y-104000000D02*
X139840000Y-104070000D01*
X138870000Y-104000000D02*
X139770000Y-104000000D01*
D36*
%TO.N,/I2C2_SDA*%
X118130000Y-108080000D02*
X119550000Y-109500000D01*
X118130000Y-106950000D02*
X118130000Y-108080000D01*
%TO.N,/I2C2_SCL*%
X114910000Y-107400000D02*
X117010000Y-109500000D01*
X114910000Y-106950000D02*
X114910000Y-107400000D01*
%TO.N,GND*%
X138055000Y-95495000D02*
X138040000Y-95480000D01*
X139260000Y-95495000D02*
X138055000Y-95495000D01*
X119660000Y-93837500D02*
X119660000Y-95140000D01*
X128890000Y-95960000D02*
X128900000Y-95970000D01*
X127910000Y-95960000D02*
X128890000Y-95960000D01*
X124160000Y-102162500D02*
X124160000Y-100910000D01*
X118730000Y-98750000D02*
X119110000Y-99130000D01*
X117747500Y-98750000D02*
X118730000Y-98750000D01*
D35*
X124360000Y-109500000D02*
X124380000Y-109520000D01*
X122090000Y-109500000D02*
X124360000Y-109500000D01*
X115910000Y-101720000D02*
X115880000Y-101690000D01*
X115910000Y-102500000D02*
X115910000Y-101720000D01*
X121050000Y-104000000D02*
X121060000Y-103990000D01*
X120210000Y-104000000D02*
X121050000Y-104000000D01*
X127500000Y-86940000D02*
X127490000Y-86950000D01*
X127500000Y-85000000D02*
X127500000Y-86940000D01*
X114450000Y-85000000D02*
X112160000Y-85000000D01*
X110150000Y-89450000D02*
X110730000Y-88870000D01*
X109150000Y-89450000D02*
X110150000Y-89450000D01*
X109910000Y-98030000D02*
X109900000Y-98020000D01*
X111390000Y-98030000D02*
X109910000Y-98030000D01*
X113090000Y-95830000D02*
X113090000Y-94300000D01*
X114590000Y-95530000D02*
X114590000Y-94690000D01*
X115910000Y-93750000D02*
X115900000Y-93740000D01*
X115910000Y-94540000D02*
X115910000Y-93750000D01*
D36*
%TO.N,/I2C2_SCL*%
X123160000Y-103142893D02*
X120172893Y-106130000D01*
X123160000Y-102162500D02*
X123160000Y-103142893D01*
%TO.N,+3.3V*%
X125560000Y-103953154D02*
X124660000Y-103053154D01*
X125560000Y-104000000D02*
X125560000Y-103953154D01*
X124660000Y-103053154D02*
X124660000Y-102162500D01*
%TO.N,GND*%
X124160000Y-103590000D02*
X124160000Y-102162500D01*
X124570000Y-104000000D02*
X124160000Y-103590000D01*
X124600000Y-104000000D02*
X124570000Y-104000000D01*
%TO.N,/I2C2_SDA*%
X121360000Y-106950000D02*
X118130000Y-106950000D01*
X123380000Y-104930000D02*
X121360000Y-106950000D01*
X123660000Y-102162500D02*
X123660000Y-103350000D01*
X123660000Y-103350000D02*
X123380000Y-103630000D01*
X123380000Y-103630000D02*
X123380000Y-104930000D01*
%TO.N,/SW_BOOT0*%
X111220000Y-91730000D02*
X110500000Y-92450000D01*
X111220000Y-90230000D02*
X111220000Y-91730000D01*
X110500000Y-92450000D02*
X109150000Y-92450000D01*
%TO.N,/BOOT0*%
X113390000Y-90230000D02*
X112240000Y-90230000D01*
X114990000Y-88630000D02*
X113390000Y-90230000D01*
X120830000Y-88630000D02*
X114990000Y-88630000D01*
X121560000Y-89360000D02*
X120830000Y-88630000D01*
X121560000Y-91822894D02*
X121560000Y-89360000D01*
X121160000Y-92222894D02*
X121560000Y-91822894D01*
X121160000Y-93837500D02*
X121160000Y-92222894D01*
%TO.N,/USART1_RX*%
X121120000Y-88050000D02*
X120040000Y-88050000D01*
X120040000Y-88050000D02*
X116990000Y-85000000D01*
X122060000Y-88990000D02*
X121120000Y-88050000D01*
X122060000Y-91990000D02*
X122060000Y-88990000D01*
X122080000Y-92010000D02*
X122060000Y-91990000D01*
X121660000Y-92430000D02*
X122080000Y-92010000D01*
X121660000Y-93837500D02*
X121660000Y-92430000D01*
%TO.N,/SWCLK*%
X130040000Y-86650000D02*
X130040000Y-85000000D01*
X124660000Y-92030000D02*
X130040000Y-86650000D01*
X124660000Y-93837500D02*
X124660000Y-92030000D01*
%TO.N,/SWDIO*%
X124970000Y-94910000D02*
X132580000Y-87300000D01*
X132580000Y-87300000D02*
X132580000Y-85000000D01*
X124970000Y-96120000D02*
X124970000Y-94910000D01*
X125100000Y-96250000D02*
X124970000Y-96120000D01*
X126072500Y-96250000D02*
X125100000Y-96250000D01*
D37*
%TO.N,/USB_D+*%
X138269985Y-96775020D02*
X138284147Y-96775020D01*
X138269965Y-96775000D02*
X138269985Y-96775020D01*
X127178751Y-96750000D02*
X127203751Y-96775000D01*
X126072500Y-96750000D02*
X127178751Y-96750000D01*
%TO.N,/USB_D-*%
X139135000Y-97320000D02*
X139260000Y-97445000D01*
X127203751Y-97225000D02*
X138097759Y-97225000D01*
X126072500Y-97250000D02*
X127178751Y-97250000D01*
X127178751Y-97250000D02*
X127203751Y-97225000D01*
D36*
%TO.N,/HSI_OUT*%
X113550000Y-98490000D02*
X113090000Y-98030000D01*
X114590000Y-98490000D02*
X113550000Y-98490000D01*
%TO.N,/HSI_IN*%
X111390000Y-96130000D02*
X111390000Y-95830000D01*
X114200000Y-96880000D02*
X112140000Y-96880000D01*
X112140000Y-96880000D02*
X111390000Y-96130000D01*
X114590000Y-96490000D02*
X114200000Y-96880000D01*
X116620000Y-97250000D02*
X115860000Y-96490000D01*
X115860000Y-96490000D02*
X114590000Y-96490000D01*
X117747500Y-97250000D02*
X116620000Y-97250000D01*
%TO.N,/HSI_OUT*%
X114913154Y-98490000D02*
X114590000Y-98490000D01*
X117747500Y-97750000D02*
X115653154Y-97750000D01*
X115653154Y-97750000D02*
X114913154Y-98490000D01*
%TO.N,GND*%
X127160000Y-95960000D02*
X127910000Y-95960000D01*
X126950000Y-95750000D02*
X127160000Y-95960000D01*
X126072500Y-95750000D02*
X126950000Y-95750000D01*
%TO.N,+3.3V*%
X127100000Y-95000000D02*
X127910000Y-95000000D01*
X126072500Y-95250000D02*
X126850000Y-95250000D01*
X126850000Y-95250000D02*
X127100000Y-95000000D01*
X116656880Y-95500000D02*
X116906880Y-95250000D01*
X116906880Y-95250000D02*
X117747500Y-95250000D01*
X115910000Y-95500000D02*
X116656880Y-95500000D01*
%TO.N,+3.3VA*%
X116760000Y-99270000D02*
X116780000Y-99250000D01*
X116380000Y-99460000D02*
X116570000Y-99270000D01*
X116570000Y-99270000D02*
X116760000Y-99270000D01*
X115910000Y-99460000D02*
X116380000Y-99460000D01*
X116780000Y-99250000D02*
X117747500Y-99250000D01*
%TO.N,GND*%
X116460000Y-98500000D02*
X116710000Y-98750000D01*
X116710000Y-98750000D02*
X117747500Y-98750000D01*
X115910000Y-98500000D02*
X116460000Y-98500000D01*
D35*
X119870000Y-91240000D02*
X119870000Y-92000000D01*
X120140000Y-90970000D02*
X119870000Y-91240000D01*
X120140000Y-90200000D02*
X120140000Y-90970000D01*
%TO.N,+3.3V*%
X118910000Y-91390000D02*
X118910000Y-92000000D01*
X118590000Y-90200000D02*
X118590000Y-91070000D01*
X118590000Y-91070000D02*
X118910000Y-91390000D01*
D36*
%TO.N,GND*%
X119870000Y-92610000D02*
X119870000Y-92000000D01*
X119660000Y-92820000D02*
X119870000Y-92610000D01*
X119660000Y-93837500D02*
X119660000Y-92820000D01*
%TO.N,/USART1_TX*%
X119460000Y-85070000D02*
X119530000Y-85000000D01*
X120247106Y-87550000D02*
X119460000Y-86762894D01*
X122160000Y-93837500D02*
X122160000Y-92637106D01*
X122600000Y-92197106D02*
X122600000Y-88590000D01*
X122160000Y-92637106D02*
X122600000Y-92197106D01*
X122600000Y-88590000D02*
X121560000Y-87550000D01*
X121560000Y-87550000D02*
X120247106Y-87550000D01*
X119460000Y-86762894D02*
X119460000Y-85070000D01*
%TO.N,/I2C2_SCL*%
X120172893Y-106130000D02*
X115730000Y-106130000D01*
X115730000Y-106130000D02*
X114910000Y-106950000D01*
D37*
%TO.N,/USB_D+*%
X127203751Y-96775000D02*
X138269965Y-96775000D01*
D35*
%TO.N,+3.3V*%
X114190000Y-109220000D02*
X114190000Y-104760000D01*
%TD*%
%TA.AperFunction,Conductor*%
%TO.N,GND*%
G36*
X133015677Y-100029685D02*
G01*
X133036319Y-100046319D01*
X133483681Y-100493681D01*
X133517166Y-100555004D01*
X133520000Y-100581362D01*
X133520000Y-102000000D01*
X133900000Y-102380000D01*
X134508638Y-102380000D01*
X134575677Y-102399685D01*
X134596319Y-102416319D01*
X134733681Y-102553681D01*
X134767166Y-102615004D01*
X134770000Y-102641362D01*
X134770000Y-103610000D01*
X136348638Y-103610000D01*
X136415677Y-103629685D01*
X136436319Y-103646319D01*
X136943681Y-104153681D01*
X136977166Y-104215004D01*
X136980000Y-104241362D01*
X136980000Y-106080500D01*
X136960315Y-106147539D01*
X136907511Y-106193294D01*
X136856000Y-106204500D01*
X132466270Y-106204500D01*
X132399231Y-106184815D01*
X132390588Y-106178725D01*
X132063818Y-105926950D01*
X132022727Y-105870440D01*
X132015500Y-105828725D01*
X132015500Y-102831361D01*
X132015390Y-102829320D01*
X132013749Y-102798703D01*
X132010915Y-102772345D01*
X132010080Y-102765340D01*
X131975297Y-102658593D01*
X131975295Y-102658588D01*
X131941815Y-102597275D01*
X131941814Y-102597273D01*
X131941812Y-102597270D01*
X131934731Y-102587811D01*
X131910316Y-102522348D01*
X131910000Y-102513503D01*
X131910000Y-102370000D01*
X131737228Y-102370000D01*
X131681026Y-102356532D01*
X131641752Y-102336562D01*
X131641746Y-102336560D01*
X131574716Y-102316877D01*
X131574710Y-102316876D01*
X131488638Y-102304500D01*
X131488635Y-102304500D01*
X130724000Y-102304500D01*
X130656961Y-102284815D01*
X130611206Y-102232011D01*
X130600000Y-102180500D01*
X130600000Y-100421362D01*
X130619685Y-100354323D01*
X130636319Y-100333681D01*
X130923681Y-100046319D01*
X130985004Y-100012834D01*
X131011362Y-100010000D01*
X132948638Y-100010000D01*
X133015677Y-100029685D01*
G37*
%TD.AperFunction*%
%TD*%
%TA.AperFunction,Conductor*%
%TO.N,+3.3V*%
G36*
X131555677Y-102629685D02*
G01*
X131576319Y-102646319D01*
X131673681Y-102743681D01*
X131707166Y-102805004D01*
X131710000Y-102831362D01*
X131710000Y-106040000D01*
X131709999Y-106040000D01*
X132319999Y-106510000D01*
X132320000Y-106510000D01*
X132460000Y-106510000D01*
X138908638Y-106510000D01*
X138975677Y-106529685D01*
X138996319Y-106546319D01*
X139023681Y-106573681D01*
X139057166Y-106635004D01*
X139060000Y-106661362D01*
X139060000Y-107738638D01*
X139040315Y-107805677D01*
X139023681Y-107826319D01*
X138706319Y-108143681D01*
X138644996Y-108177166D01*
X138618638Y-108180000D01*
X134749999Y-108180000D01*
X134470000Y-108459999D01*
X134470000Y-110068638D01*
X134450315Y-110135677D01*
X134433681Y-110156319D01*
X132996319Y-111593681D01*
X132934996Y-111627166D01*
X132908638Y-111630000D01*
X128441362Y-111630000D01*
X128374323Y-111610315D01*
X128353681Y-111593681D01*
X128186319Y-111426319D01*
X128152834Y-111364996D01*
X128150000Y-111338638D01*
X128150000Y-109351362D01*
X128169685Y-109284323D01*
X128186319Y-109263681D01*
X129600000Y-107850000D01*
X129600000Y-105256095D01*
X129619685Y-105189056D01*
X129627453Y-105178283D01*
X129628212Y-105177341D01*
X129632551Y-105171827D01*
X129632553Y-105171825D01*
X129683439Y-105071749D01*
X129703124Y-105004710D01*
X129715500Y-104918638D01*
X129715500Y-102734000D01*
X129735185Y-102666961D01*
X129787989Y-102621206D01*
X129839500Y-102610000D01*
X131488638Y-102610000D01*
X131555677Y-102629685D01*
G37*
%TD.AperFunction*%
%TD*%
%TA.AperFunction,Conductor*%
%TO.N,VBUS*%
G36*
X138069593Y-97764179D02*
G01*
X138071845Y-97765479D01*
X138071846Y-97765480D01*
X138163171Y-97818207D01*
X138260939Y-97844403D01*
X138316525Y-97876496D01*
X138362235Y-97922206D01*
X138465009Y-97967585D01*
X138490135Y-97970500D01*
X139879864Y-97970499D01*
X139879879Y-97970497D01*
X139879882Y-97970497D01*
X139904987Y-97967586D01*
X139913445Y-97965285D01*
X139983301Y-97966678D01*
X140041314Y-98005618D01*
X140069065Y-98069740D01*
X140070000Y-98084935D01*
X140070000Y-98456000D01*
X140050315Y-98523039D01*
X139997511Y-98568794D01*
X139946000Y-98580000D01*
X131889999Y-98580000D01*
X130270000Y-100199999D01*
X130270000Y-101948638D01*
X130250315Y-102015677D01*
X130233681Y-102036319D01*
X130076319Y-102193681D01*
X130014996Y-102227166D01*
X129988638Y-102230000D01*
X129649999Y-102230000D01*
X129410000Y-102469999D01*
X129410000Y-104918638D01*
X129390315Y-104985677D01*
X129373681Y-105006319D01*
X129216319Y-105163681D01*
X129154996Y-105197166D01*
X129128638Y-105200000D01*
X127691362Y-105200000D01*
X127624323Y-105180315D01*
X127603681Y-105163681D01*
X127436319Y-104996319D01*
X127402834Y-104934996D01*
X127400000Y-104908638D01*
X127400000Y-102761362D01*
X127419685Y-102694323D01*
X127436319Y-102673681D01*
X127873681Y-102236319D01*
X127935004Y-102202834D01*
X127961362Y-102200000D01*
X128620000Y-102200000D01*
X128840000Y-101980000D01*
X128840000Y-100371362D01*
X128859685Y-100304323D01*
X128876319Y-100283681D01*
X128960001Y-100199999D01*
X131373701Y-97786298D01*
X131435022Y-97752815D01*
X131461333Y-97749981D01*
X138007548Y-97747566D01*
X138069593Y-97764179D01*
G37*
%TD.AperFunction*%
%TD*%
M02*
